<svg width="18" height="11" viewBox="0 0 18 11" fill="none" xmlns="http://www.w3.org/2000/svg">
<rect width="18" height="11" fill="#1E1E1E"/>
<g id="Homepage" clip-path="url(#clip0_0_1)">
<rect width="1440" height="4127" transform="translate(-1162.31 -2831)" fill="white"/>
<g id="Frame 48095730" clip-path="url(#clip1_0_1)">
<g id="Frame 28">
<g id="Frame 27">
<g id="Frame 24">
<rect x="-920.313" y="-25" width="956" height="62" rx="9.5" stroke="#C5C5C5"/>
<g id="Frame 26">
<g id="Frame 24_2">
<g id="3682892 1 (traced)" opacity="0.8" clip-path="url(#clip2_0_1)">
<g id="Black">
<path id="Vector" d="M17.5116 1.34819C17.1805 0.713043 16.4368 0.474186 15.8613 0.821615C15.7039 0.9139 14.4336 2.18961 12.4196 4.2959C10.6608 6.1199 9.20591 7.61819 9.18963 7.61819C9.17334 7.61819 7.71849 6.1199 5.95963 4.29047C3.94563 2.18961 2.67534 0.9139 2.51791 0.821615C2.0782 0.555615 1.44306 0.642472 1.10106 1.01161C0.759058 1.3699 0.666772 1.9779 0.9002 2.39047C0.965343 2.51533 2.70249 4.36104 4.75449 6.49447C7.63163 9.48561 8.54363 10.3976 8.70649 10.4628C8.97791 10.5713 9.40134 10.5713 9.67277 10.4628C9.83563 10.3976 10.7368 9.49647 13.6248 6.49447C15.6768 4.36104 17.4139 2.51533 17.4845 2.39047C17.6311 2.12447 17.6473 1.5979 17.5116 1.34819Z" fill="#0D0D0D"/>
</g>
</g>
</g>
</g>
</g>
</g>
</g>
<g id="Pattern">
<path id="Ellipse 35" opacity="0.15" d="M177.582 -207.604C207.034 -68.6624 75.6138 -111.912 125.69 -49.8477C175.766 12.2166 266.674 21.9349 328.739 -28.1414C390.803 -78.2178 400.521 -169.126 350.445 -231.19C300.369 -293.254 148.131 -346.545 177.582 -207.604Z" fill="#A5D089"/>
<path id="Ellipse 34" opacity="0.15" d="M143.441 -144.651C246.78 -47.2175 114.124 -7.92162 190.632 14.5746C267.141 37.0708 347.4 -6.71481 369.896 -83.2233C392.392 -159.732 348.606 -239.991 272.098 -262.487C195.59 -284.983 40.1032 -242.085 143.441 -144.651Z" fill="#F8B762"/>
</g>
</g>
</g>
<defs>
<clipPath id="clip0_0_1">
<rect width="1440" height="4127" fill="white" transform="translate(-1162.31 -2831)"/>
</clipPath>
<clipPath id="clip1_0_1">
<rect width="1440" height="661" fill="white" transform="translate(-1162.31 -348)"/>
</clipPath>
<clipPath id="clip2_0_1">
<rect width="20" height="15.7895" fill="white" transform="translate(0.187012 -1.89478)"/>
</clipPath>
</defs>
</svg>
